HIERARCHY
ROOT Hip
{
  OFFSET 0.0 0.0 0.0
  CHANNELS 6 Xposition Yposition Zposition Xrotation Yrotation Zrotation
  JOINT LowerSpine
  {
    OFFSET 0.0 0.061367 -0.03653
    CHANNELS 3 Xrotation Yrotation Zrotation
    JOINT MiddleSpine
    {
      OFFSET 0.0 0.056002 0.002633
      CHANNELS 3 Xrotation Yrotation Zrotation
      JOINT Chest
      {
        OFFSET 0.0 0.069296 -0.013882
        CHANNELS 3 Xrotation Yrotation Zrotation
        JOINT Neck
        {
          OFFSET 0.0 0.156156 -0.002923
          CHANNELS 3 Xrotation Yrotation Zrotation
          JOINT Head
          {
            OFFSET 0.0 0.088183 0.023986
            CHANNELS 3 Xrotation Yrotation Zrotation
            End Site
            {
              OFFSET 1e-06 0.123215 0.003678
            }
          }
        }
        JOINT LClavicle
        {
          OFFSET 0.014189 0.150698 0.046467
          CHANNELS 3 Xrotation Yrotation Zrotation
          JOINT LShoulder
          {
            OFFSET 0.082893 0.021616 -0.034976
            CHANNELS 3 Xrotation Yrotation Zrotation
            JOINT LForearm
            {
              OFFSET 0.195645 -0.000695 -0.001695
              CHANNELS 3 Xrotation Yrotation Zrotation
              JOINT LHand
              {
                OFFSET 0.163209 0.000474 -0.000977
                CHANNELS 3 Xrotation Yrotation Zrotation
                End Site
                {
                  OFFSET 0.0 0.006864 0.0
                }
              }
            }
          }
        }
        JOINT RClavicle
        {
          OFFSET -0.014189 0.150698 0.046467
          CHANNELS 3 Xrotation Yrotation Zrotation
          JOINT RShoulder
          {
            OFFSET -0.082908 0.021619 -0.034982
            CHANNELS 3 Xrotation Yrotation Zrotation
            JOINT RForearm
            {
              OFFSET -0.195645 -0.000695 -0.001695
              CHANNELS 3 Xrotation Yrotation Zrotation
              JOINT RHand
              {
                OFFSET -0.163209 0.000474 -0.000977
                CHANNELS 3 Xrotation Yrotation Zrotation
                End Site
                {
                  OFFSET 0.0 0.006864 0.0
                }
              }
            }
          }
        }
      }
    }
  }
  JOINT RThigh
  {
    OFFSET -0.072558 0.02774 -0.005953
    CHANNELS 3 Xrotation Yrotation Zrotation
    JOINT RShin
    {
      OFFSET -0.005253 -0.285537 0.0
      CHANNELS 3 Xrotation Yrotation Zrotation
      JOINT RFoot
      {
        OFFSET 0.0 -0.28038 0.0
        CHANNELS 3 Xrotation Yrotation Zrotation
        JOINT RToe
        {
          OFFSET 0.0 -0.030816 0.064441
          CHANNELS 3 Xrotation Yrotation Zrotation
          End Site
          {
            OFFSET 0.0 0.0 0.043231
          }
        }
      }
    }
  }
  JOINT LThigh
  {
    OFFSET 0.072557 0.027741 -0.005953
    CHANNELS 3 Xrotation Yrotation Zrotation
    JOINT LShin
    {
      OFFSET 0.005253 -0.285539 0.0
      CHANNELS 3 Xrotation Yrotation Zrotation
      JOINT LFoot
      {
        OFFSET 0.0 -0.28038 0.0
        CHANNELS 3 Xrotation Yrotation Zrotation
        JOINT LToe
        {
          OFFSET 0.0 -0.030816 0.064441
          CHANNELS 3 Xrotation Yrotation Zrotation
          End Site
          {
            OFFSET 0.0 0.0 0.043231
          }
        }
      }
    }
  }
}
MOTION
Frames: 9
Frame Time: 0.03333333333333333
-0.038412 0.554229 -0.024213 -2.224854 -1.754253 -0.779746 2.716169 0.199187 -0.277952 -0.609427 1.734569 0.918271 0.714561 4.369811 5.291449 2.518493 0.426751 0.152838 0.006894 0.018634 0.002308 -0.99928 0.198703 -8.282336 8.072682 -17.314133 -62.941689 5.220926 -38.237774 3.452007 0.022125 0.049127 -0.030316 -0.295793 -0.304712 2.797323 -43.719788 15.23431 43.715412 134.890182 69.454247 -178.485214 0.055175 -0.053151 0.008564 -2.875083 0.528121 1.070101 7.268279 -0.054878 1.598706 -3.90699 1.169008 0.511492 -0.006281 0.109566 0.02989 2.643831 1.630551 2.236718 4.396701 1.47281 3.488507 -5.485288 3.799376 2.197375 -0.027291 0.040561 0.024861 
-0.039673 0.552171 -0.02424 -1.906342 -1.888666 -0.849503 2.714734 0.168726 -0.325829 -0.571967 1.738687 0.919854 0.779085 4.39404 5.326251 2.46519 0.423914 0.147145 0.009968 0.021478 -0.001288 -0.960822 0.180895 -8.19708 7.871742 -17.073708 -62.960384 4.821245 -38.695961 3.61529 0.026134 0.051893 -0.033007 -0.289931 -0.368159 3.103088 -42.454815 13.46145 44.364635 133.630432 70.360359 -177.636307 0.07444 -0.074626 0.008847 -3.272547 0.21971 1.248231 7.468 -0.272504 1.691335 -3.806827 1.212529 0.540903 -0.00314 0.118213 0.030493 2.048034 1.517505 2.511526 4.713275 1.450519 3.27819 -5.395175 3.731282 2.150618 -0.022424 0.040371 0.025359 
-0.041387 0.548793 -0.024521 -1.534354 -1.935562 -0.860977 2.720594 0.137836 -0.356533 -0.544854 1.734062 0.927237 0.701162 4.430932 5.309983 2.430579 0.425947 0.13359 0.013242 0.019043 -0.00584 -0.914697 0.138381 -8.16185 7.519973 -16.933929 -62.972973 4.378087 -39.034653 3.799212 0.02983 0.055864 -0.035175 -0.31219 -0.443258 3.287025 -41.80584 12.562346 44.75597 132.272659 71.754417 -176.566452 0.088946 -0.096697 0.008916 -3.669895 -0.073429 1.426688 7.605358 -0.4233 1.744031 -3.794129 1.219824 0.532919 -0.002599 0.133809 0.035608 1.384532 1.418488 2.810327 5.104309 1.505169 3.010237 -5.335387 3.678004 2.100981 -0.014599 0.03568 0.025574 
-0.043248 0.54541 -0.024903 -1.147158 -1.999768 -0.875513 2.721764 0.095274 -0.386443 -0.520715 1.715491 0.931986 0.632415 4.431944 5.21985 2.388163 0.42425 0.125119 0.016466 0.017674 -0.009197 -0.881911 0.074694 -8.124177 7.2095 -16.875763 -62.906712 3.924276 -39.255146 3.986929 0.032566 0.05851 -0.035855 -0.335496 -0.477718 3.472922 -41.01033 11.793597 45.183544 131.001648 72.993896 -175.398972 0.102373 -0.115703 0.009304 -4.120462 -0.312648 1.584777 7.727788 -0.546844 1.796358 -3.78839 1.223988 0.524272 -0.001181 0.148784 0.04066 0.688766 1.341185 3.13457 5.517634 1.590416 2.729434 -5.291294 3.616819 2.048473 -0.007049 0.032135 0.026182 
-0.04526 0.541997 -0.025667 -0.742892 -1.95757 -0.882653 2.723828 0.041331 -0.416089 -0.497049 1.692373 0.936373 0.524069 4.443997 5.069099 2.350829 0.427613 0.125328 0.018851 0.015375 -0.011878 -0.85925 0.006872 -8.115201 6.897597 -16.93849 -62.759289 3.454164 -39.252014 4.1094 0.035355 0.06122 -0.037165 -0.353618 -0.478 3.596025 -40.284161 11.425036 45.624649 130.064926 74.179062 -174.334503 0.116003 -0.132724 0.010278 -4.660441 -0.45419 1.677233 7.876425 -0.655596 1.862255 -3.810701 1.225262 0.514153 -0.000687 0.161299 0.045923 -0.023314 1.314161 3.444536 5.878287 1.685186 2.467151 -5.257684 3.535749 1.989625 -0.001979 0.030719 0.027684 
-0.047329 0.538986 -0.026378 -0.357748 -1.868827 -0.883279 2.717661 -0.008849 -0.4411 -0.474136 1.678885 0.930427 0.423929 4.451012 4.888091 2.314285 0.426659 0.124049 0.020426 0.016873 -0.013477 -0.836619 -0.05522 -8.118544 6.672981 -17.154287 -62.479431 3.076907 -39.134445 4.17164 0.03681 0.062127 -0.036445 -0.367888 -0.474513 3.689536 -39.479946 11.323606 46.05125 129.646439 75.096626 -173.553879 0.128248 -0.143588 0.011858 -5.209821 -0.523579 1.696504 8.048852 -0.734978 1.9234 -3.856886 1.216102 0.506574 0.00126 0.170673 0.049167 -0.611928 1.307995 3.748434 6.111622 1.837416 2.227285 -5.224538 3.459407 1.938557 4.5e-05 0.031144 0.029344 
-0.049338 0.536443 -0.027281 -0.052669 -1.798459 -0.885261 2.71347 -0.04965 -0.458673 -0.447827 1.681925 0.925463 0.358789 4.497647 4.715293 2.284171 0.425614 0.122531 0.021737 0.01861 -0.014601 -0.80573 -0.120018 -8.102506 6.484648 -17.535515 -62.146309 2.814716 -39.02953 4.19704 0.038229 0.063521 -0.035554 -0.38367 -0.470778 3.740526 -38.794827 11.516083 46.454048 129.337006 76.011467 -172.786133 0.135643 -0.149298 0.013049 -5.708689 -0.523281 1.699302 8.247283 -0.775559 1.965682 -3.917802 1.211564 0.498163 0.003224 0.179468 0.051628 -1.058872 1.336962 4.078406 6.24527 2.01227 2.00086 -5.189388 3.398257 1.903921 0.001908 0.030358 0.03007 
-0.051288 0.534517 -0.028315 0.176524 -1.751511 -0.885935 2.713769 -0.086154 -0.471891 -0.419139 1.695102 0.923101 0.315043 4.573001 4.545239 2.254757 0.424267 0.121485 0.022841 0.0169 -0.015796 -0.780041 -0.187329 -8.064379 6.318113 -17.969255 -61.772804 2.651886 -38.925426 4.216519 0.039669 0.065279 -0.035133 -0.410267 -0.456778 3.773621 -38.177467 11.81755 46.833282 129.084518 76.787003 -172.008545 0.138762 -0.152281 0.01383 -6.14496 -0.477649 1.675199 8.418651 -0.794114 1.99643 -3.982951 1.209894 0.487083 0.003852 0.187617 0.054826 -1.407851 1.412406 4.416833 6.36169 2.180785 1.788929 -5.166936 3.345091 1.879194 0.004091 0.028899 0.030226 
-0.053056 0.533319 -0.029232 0.353182 -1.699974 -0.888923 2.713822 -0.117631 -0.480809 -0.391861 1.711858 0.921686 0.291272 4.660634 4.382173 2.228545 0.423238 0.119715 0.02362 0.012989 -0.016648 -0.761571 -0.246922 -8.026334 6.192754 -18.383598 -61.409256 2.564264 -38.792625 4.226326 0.04099 0.067154 -0.034998 -0.442058 -0.442461 3.802573 -37.631222 12.1235 47.170414 128.949463 77.351509 -171.367706 0.138603 -0.153375 0.014317 -6.50863 -0.414398 1.629567 8.5649 -0.803333 2.013104 -4.043464 1.207654 0.473972 0.003327 0.194419 0.058153 -1.675897 1.504536 4.721533 6.453862 2.332363 1.607564 -5.15587 3.302663 1.862741 0.006493 0.026971 0.029809 
